<?xml version="1.0" encoding="UTF-8" standalone="no"?>
<!-- Created with Inkscape (http://www.inkscape.org/) -->

<svg
   xmlns:dc="http://purl.org/dc/elements/1.1/"
   xmlns:cc="http://creativecommons.org/ns#"
   xmlns:rdf="http://www.w3.org/1999/02/22-rdf-syntax-ns#"
   xmlns:svg="http://www.w3.org/2000/svg"
   xmlns="http://www.w3.org/2000/svg"
   xmlns:sodipodi="http://sodipodi.sourceforge.net/DTD/sodipodi-0.dtd"
   xmlns:inkscape="http://www.inkscape.org/namespaces/inkscape"
   width="8in"
   height="8in"
   viewBox="0 0 203.2 203.20001"
   version="1.1"
   id="svg3742"
   inkscape:version="0.92.3 (d244b95, 2018-08-02)"
   sodipodi:docname="icono.svg">
  <defs
     id="defs3736" />
  <sodipodi:namedview
     id="base"
     pagecolor="#ffffff"
     bordercolor="#666666"
     borderopacity="1.0"
     inkscape:pageopacity="0.0"
     inkscape:pageshadow="2"
     inkscape:zoom="0.35"
     inkscape:cx="400"
     inkscape:cy="560"
     inkscape:document-units="mm"
     inkscape:current-layer="layer1"
     showgrid="false"
     units="in"
     inkscape:window-width="1920"
     inkscape:window-height="1027"
     inkscape:window-x="0"
     inkscape:window-y="30"
     inkscape:window-maximized="1" />
  <metadata
     id="metadata3739">
    <rdf:RDF>
      <cc:Work
         rdf:about="">
        <dc:format>image/svg+xml</dc:format>
        <dc:type
           rdf:resource="http://purl.org/dc/dcmitype/StillImage" />
        <dc:title></dc:title>
      </cc:Work>
    </rdf:RDF>
  </metadata>
  <g
     inkscape:label="Layer 1"
     inkscape:groupmode="layer"
     id="layer1"
     transform="translate(0,-93.799983)">
    <path
       style="font-style:normal;font-weight:normal;font-size:10.58333302px;line-height:1.25;font-family:sans-serif;letter-spacing:0px;word-spacing:0px;fill:#ff6600;fill-opacity:1;stroke:none;stroke-width:0.26458332"
       d="m 33.065355,208.55356 c 2.081389,0 4.162778,0 6.244167,0 0.131847,-3.46299 -0.262064,-7.10826 0.193856,-10.45889 1.575798,-1.9994 3.151596,-3.9988 4.727394,-5.9982 2.910417,5.4857 5.820834,10.97139 8.731251,16.45709 2.275416,0 4.550833,0 6.82625,0 -3.933473,-7.05556 -7.866945,-14.11111 -11.800417,-21.16667 3.563055,-4.48028 7.126111,-8.96055 10.689167,-13.44083 -2.318319,0.16265 -4.953696,-0.32642 -7.072472,0.2464 -4.11879,5.11459 -8.0749,10.56356 -12.295029,15.46985 0,-5.23875 0,-10.4775 0,-15.71625 -2.081389,0 -4.162778,0 -6.244167,0 0,11.53583 0,23.07166 0,34.6075 z m 43.370997,0.635 c 6.29856,0.40467 13.593597,-4.19019 12.769699,-11.18028 -0.250299,-5.91288 -6.303114,-8.03157 -10.930217,-9.93705 -4.805391,-0.24402 -10.583583,-6.88523 -3.765979,-9.14356 4.103089,-2.443 8.928507,3.751 11.485196,1.47499 3.416801,-2.34716 1.061988,-4.50146 -2.150391,-5.60669 -6.407668,-3.13922 -16.497219,-1.46368 -18.557912,6.25332 -1.497223,5.48979 3.142344,10.13155 8.041392,11.58302 3.243155,1.8484 8.029319,2.18157 9.560842,5.97901 0.742125,5.99762 -7.493986,6.05181 -11.320963,4.14786 -2.783456,-1.45993 -4.898653,-4.0592 -6.692383,-0.22011 -3.411309,3.35989 5.416686,5.50141 7.973132,6.30966 1.181536,0.22638 2.384579,0.33992 3.587584,0.33983 z m 31.623498,0 c 7.21001,0.34675 12.5084,-6.35283 13.20434,-13.0428 1.19381,-7.67872 0.0804,-17.77972 -7.68612,-21.65648 -6.62276,-3.27528 -15.384881,0.3102 -17.58366,7.43664 -2.589792,7.84825 -2.416989,17.92725 3.699803,24.13584 2.241917,2.09418 5.318117,3.15602 8.365637,3.1268 z m 0,-5.34459 c -6.14668,-0.33237 -7.36603,-7.80391 -7.3025,-12.75291 -0.0889,-4.88488 1.25577,-12.17249 7.3025,-12.43542 6.04673,0.26293 7.39144,7.55054 7.3025,12.43542 -0.0174,4.89458 -1.07237,12.50605 -7.3025,12.75291 z m 20.29933,4.70959 c 2.04611,0 4.09222,0 6.13833,0 0,-4.51556 0,-9.03111 0,-13.54667 1.73608,0.33956 4.28854,-0.69784 5.48637,0.54955 2.36926,4.33237 4.73853,8.66474 7.1078,12.99712 2.31069,0 4.62139,0 6.93208,0 -2.75167,-4.81542 -5.50333,-9.63084 -8.255,-14.44625 8.37712,-2.14203 9.51147,-15.8235 1.32395,-18.95016 -6.02805,-2.02638 -12.48562,-0.92909 -18.73353,-1.21109 0,11.53583 0,23.07166 0,34.6075 z m 6.13833,-18.415 c 0,-3.75709 0,-7.51417 0,-11.27125 3.95945,0.26961 9.14768,-1.12163 11.63836,2.83517 2.41683,5.20766 -3.2068,9.51162 -8.12857,8.43608 -1.16993,0 -2.33986,0 -3.50979,0 z m 33.95183,18.415 c 2.04611,0 4.09222,0 6.13834,0 0,-9.80722 0,-19.61445 0,-29.42167 3.63361,0 7.26722,0 10.90083,0 -0.38701,-1.55038 0.79538,-4.67017 -0.62636,-5.18583 -9.10454,0 -18.20909,0 -27.31364,0 0.38701,1.55038 -0.79538,4.67017 0.62635,5.18583 3.42483,0 6.84966,0 10.27448,0 0,9.80722 0,19.61445 0,29.42167 z"
       id="text3746"
       inkscape:connector-curvature="0" />
  </g>
</svg>
